<svg xmlns="http://www.w3.org/2000/svg" viewBox="0 0 9.84 12.173" width="9.84pt" height="12.173pt" data-symbol="hatched-frame-tilted" data-kind="shape" data-size-pt="9.84x12.173">
  <title>hatched-frame-tilted</title>
  <desc>a tilted square frame filled with diagonal hatching/texture and a small triangle pointer inside, like a highlighted or selected frame/region | source: asplos26-013_fig7 (src/fig7_Algorithm_overview.svg) | candidate asplos26-013_fig7_16 | units: pt at print size | colours as drawn, recolour by role</desc>
  <g data-symbol="hatched-frame-tilted" transform="scale(0.41633) translate(-995.4770,-232.4510)"><path transform="matrix(1,0,0,-1,0,300.36)" stroke-width="2" stroke-linecap="square" stroke-miterlimit="2" stroke-linejoin="miter" fill="none" stroke="#dcd7c1" d="M997.7 65.826 997.9 46.304 1017.03 40.753 1016.82 60.275 997.7 65.826Z"/>
<path transform="matrix(1,0,0,-1,0,300.36)" stroke-width="1.5" stroke-linecap="round" stroke-linejoin="round" fill="none" stroke="#dcd7c1" d="M997.31 64.688 1016.62 41.953"/>
<path transform="matrix(1,0,0,-1,0,300.36)" stroke-width="1.5" stroke-linecap="round" stroke-linejoin="round" fill="none" stroke="#dcd7c1" d="M997.8 56.065 1007.47 43.529"/>
<path transform="matrix(1,0,0,-1,0,300.36)" stroke-width="1.5" stroke-linecap="round" stroke-linejoin="round" fill="none" stroke="#dcd7c1" d="M1007.26 63.051 1016.93 50.514"/>
<path transform="matrix(1,0,0,-1,0,300.36)" stroke-width="2" stroke-linecap="square" stroke-miterlimit="2" stroke-linejoin="miter" fill="none" stroke="#dcd7c1" d="M997.7 65.826 997.9 46.304 1017.03 40.753 1016.82 60.275 997.7 65.826Z"/>
<path transform="matrix(1,0,0,-1,0,300.36)" stroke-width="1.5" stroke-linecap="round" stroke-linejoin="round" fill="none" stroke="#dcd7c1" d="M997.31 64.688 1016.62 41.953"/>
<path transform="matrix(1,0,0,-1,0,300.36)" stroke-width="1.5" stroke-linecap="round" stroke-linejoin="round" fill="none" stroke="#dcd7c1" d="M997.8 56.065 1007.47 43.529"/>
<path transform="matrix(1,0,0,-1,0,300.36)" stroke-width="1.5" stroke-linecap="round" stroke-linejoin="round" fill="none" stroke="#dcd7c1" d="M1007.26 63.051 1016.93 50.514"/>
<path transform="matrix(1,0,0,-1,0,300.36)" d="M1008.22 52.586 1001.18 49.066C1002.29 51.282 1002.29 53.89 1001.18 56.106L1008.22 52.586Z" fill="#7f7f7f" fill-rule="evenodd"/>
</g>
</svg>
