<svg xmlns="http://www.w3.org/2000/svg" viewBox="0 0 172.978 52.889" width="172.978pt" height="52.889pt" data-symbol="constraint-labelled-convergence-arrows" data-kind="device" data-size-pt="172.978x52.889">
  <title>constraint-labelled-convergence-arrows</title>
  <desc>two arrows converging from separate boxes onto one shared labelled target, each arrow carrying its own mathematical relation (equals / less-than-or-equal) between the source and target quantities -- asserting an invariant is preserved across the merge | source: nsdi23-081_fig2 (nsdi23-081_fig2_p5_mixed.svg) | candidate wave5:constraint-labelled-convergence-arrows | units: pt at print size | colours as drawn, recolour by role</desc>
  <g data-symbol="constraint-labelled-convergence-arrows" transform="scale(1) translate(-13.1570,-71.2880)"><defs>
<clipPath id="nsdi23-081-fig2-constraint-labelled-convergence-arrows-clip_1">
<path transform="matrix(1,0,0,-1,-331.643,723.0005)" d="M331.643 590.00808H541.74667V723.0005H331.643Z" clip-rule="evenodd"/>
</clipPath>
<clipPath id="nsdi23-081-fig2-constraint-labelled-convergence-arrows-clip_2">
<path transform="matrix(.46599,0,0,-.46599,3,122.75946)" d="M0 0H438V257H0Z"/>
</clipPath>
<clipPath id="nsdi23-081-fig2-constraint-labelled-convergence-arrows-clip_3">
<path transform="matrix(.46599,0,0,-.46599,3,122.75946)" d="M0 0H438V257H0Z"/>
</clipPath>
<clipPath id="nsdi23-081-fig2-constraint-labelled-convergence-arrows-clip_4">
<path transform="matrix(.46599,0,0,-.46599,3,122.75946)" d="M161 48H277V2.000001H161Z"/>
</clipPath>
<clipPath id="nsdi23-081-fig2-constraint-labelled-convergence-arrows-clip_5">
<path transform="matrix(.46599,0,0,-.46599,3,122.75946)" d="M161 1H278V49H161Z"/>
</clipPath>
</defs>
<g>
<g clip-path="url(#nsdi23-081-fig2-constraint-labelled-convergence-arrows-clip_1)">
<g clip-path="url(#nsdi23-081-fig2-constraint-labelled-convergence-arrows-clip_2)">
<text xml:space="preserve" transform="matrix(.46599 0 -0 .46599 56.218717 235.52906)" font-size="18" font-family="ArialMT, Helvetica, Arial, sans-serif"><tspan y="-257" x="0 14.0004019 26.002804">GPU</tspan></text>
<path transform="matrix(.46599,0,0,-.46599,3,122.75946)" d="M82.24607 96.70848 210.2017 52.26727 209.7095 50.8503 81.75393 95.29152ZM210.6513 56.61013 218.4573 48.60598 207.3704 47.16368Z"/>
<path transform="matrix(.46599,0,0,-.46599,3,122.75946)" d="M353.7739 96.70767 227.2436 52.29444 227.7404 50.87909 354.2707 95.29233ZM226.7796 56.63577 219 48.60598 230.0916 47.20016Z"/>
<text xml:space="preserve" transform="matrix(.46599 0 -0 .46599 19.562497 213.6275)" font-size="18" font-family="CambriaMath, sans-serif"><tspan y="-257" x="0">𝛼</tspan></text>
<text xml:space="preserve" transform="matrix(.46599 0 -0 .46599 24.688385 215.49147)" font-size="13" font-family="CambriaMath, sans-serif"><tspan y="-257" x="0 8.000201 16.0004">out</tspan></text>
<text xml:space="preserve" transform="matrix(.46599 0 -0 .46599 37.7361 213.6275)" font-size="18" font-family="CambriaMath, sans-serif"><tspan y="-257" x="0">=</tspan></text>
<text xml:space="preserve" transform="matrix(.46599 0 -0 .46599 46.12392 213.6275)" font-size="18" font-family="CambriaMath, sans-serif"><tspan y="-257" x="0">𝛼</tspan></text>
<text xml:space="preserve" transform="matrix(.46599 0 -0 .46599 51.249818 215.49147)" font-size="13" font-family="CambriaMath, sans-serif"><tspan y="-257" x="0 4.9998">in</tspan></text>
<text xml:space="preserve" transform="matrix(.46599 0 -0 .46599 144.16002 215.95746)" font-size="18" font-family="CambriaMath, sans-serif"><tspan y="-257" x="0">𝛽</tspan></text>
<text xml:space="preserve" transform="matrix(.46599 0 -0 .46599 148.81992 217.82141)" font-size="13" font-family="CambriaMath, sans-serif"><tspan y="-257" x="0 8.000201 16.0004">out</tspan></text>
<text xml:space="preserve" transform="matrix(.46599 0 -0 .46599 161.86763 215.95746)" font-size="18" font-family="CambriaMath, sans-serif"><tspan y="-257" x="0">≤</tspan></text>
<text xml:space="preserve" transform="matrix(.46599 0 -0 .46599 170.25547 215.95746)" font-size="18" font-family="CambriaMath, sans-serif"><tspan y="-257" x="0">𝛽</tspan></text>
<text xml:space="preserve" transform="matrix(.46599 0 -0 .46599 174.91536 217.82141)" font-size="13" font-family="CambriaMath, sans-serif"><tspan y="-257" x="0 4.9998">in</tspan></text>
</g>
</g>
</g>
</g>
</svg>
