<svg xmlns="http://www.w3.org/2000/svg" viewBox="0 0 39.113 39.006" width="39.113pt" height="39.006pt" data-symbol="chip-radiating-links" data-kind="icon" data-size-pt="39.113x39.006">
  <title>chip-radiating-links</title>
  <desc>blue chip/cube with four green cross-shaped links radiating outward | source: asplos25-148_fig5 (src/fig5_architecture2.svg) | candidate asplos25-148_fig5_0 | units: pt at print size | colours as drawn, recolour by role</desc>
  <g data-symbol="chip-radiating-links" transform="scale(0.4059) translate(-34.5960,-214.7250)"><path transform="matrix(1,0,0,-1,68.576,271.801)" d="M0 0C-.34-.34 .5-1.75 1.89-3.15 3.29-4.54 4.7-5.39 5.05-5.04L-25.3-35.38C-25.64-35.73-27.05-34.88-28.45-33.49-29.84-32.1-30.69-30.68-30.34-30.34Z" fill="#70ad47" fill-rule="evenodd"/>
<path transform="matrix(1,0,0,-1,68.576,271.801)" d="M0 0C.35 .35 1.76-.49 3.15-1.89 4.55-3.28 5.39-4.69 5.05-5.04 4.7-5.39 3.29-4.54 1.89-3.15 .5-1.75-.34-.34 0 0Z" fill="#a9ce91" fill-rule="evenodd"/>
<path transform="matrix(1,0,0,-1,80.326,277.121)" d="M0 0C0-.41 1.34-.75 3-.75 4.65-.75 6-.41 6 0V-25.5C6-25.91 4.65-26.25 3-26.25 1.34-26.25 0-25.91 0-25.5Z" fill="#70ad47" fill-rule="evenodd"/>
<path transform="matrix(1,0,0,-1,80.326,277.121)" d="M0 0C0 .42 1.34 .75 3 .75 4.65 .75 6 .42 6 0 6-.41 4.65-.75 3-.75 1.34-.75 0-.41 0 0Z" fill="#a9ce91" fill-rule="evenodd"/>
<path transform="matrix(1,0,0,-1,68.326,260.621)" d="M0 0C-.42 0-.75-1.34-.75-3-.75-4.65-.42-6 0-6H-25.5C-25.92-6-26.25-4.65-26.25-3-26.25-1.34-25.92 0-25.5 0Z" fill="#70ad47" fill-rule="evenodd"/>
<path transform="matrix(1,0,0,-1,68.326,260.621)" d="M0 0C.41 0 .75-1.34 .75-3 .75-4.65 .41-6 0-6-.42-6-.75-4.65-.75-3-.75-1.34-.42 0 0 0Z" fill="#a9ce91" fill-rule="evenodd"/>
<path transform="matrix(1,0,0,-1,-382.054,527.241)" d="M446.63 246.37H473.06703V272.807H446.63Z" fill="#4472c4" fill-rule="evenodd"/>
<path transform="matrix(1,0,0,-1,91.006,254.431)" d="M0 0 8.82 8.81V-17.62L0-26.44Z" fill="#375c9e" fill-rule="evenodd"/>
<path transform="matrix(1,0,0,-1,64.576,254.431)" d="M0 0 8.81 8.81H35.25L26.43 0Z" fill="#698ed0" fill-rule="evenodd"/>
<path transform="matrix(1,0,0,-1,64.576,254.431)" stroke-width="1" stroke-linecap="butt" stroke-miterlimit="10" stroke-linejoin="miter" fill="none" stroke="#172c51" d="M0 0 8.81 8.81H35.25V-17.62L26.43-26.44H0ZM0 0H26.43L35.25 8.81M26.43 0V-26.44"/>
<path transform="matrix(1,0,0,-1,121.576,259.871)" d="M0 0C-.42 0-.75-1.34-.75-3-.75-4.65-.42-6 0-6H-25.5C-25.92-6-26.25-4.65-26.25-3-26.25-1.34-25.92 0-25.5 0Z" fill="#70ad47" fill-rule="evenodd"/>
<path transform="matrix(1,0,0,-1,121.576,259.871)" d="M0 0C.41 0 .75-1.34 .75-3 .75-4.65 .41-6 0-6-.42-6-.75-4.65-.75-3-.75-1.34-.42 0 0 0Z" fill="#a9ce91" fill-rule="evenodd"/>
<path transform="matrix(1,0,0,-1,122.276,218.361)" d="M0 0C-.35-.35 .5-1.76 1.89-3.15 3.28-4.55 4.69-5.39 5.04-5.05L-25.3-35.39C-25.65-35.73-27.06-34.89-28.45-33.5-29.84-32.1-30.69-30.69-30.34-30.34Z" fill="#70ad47" fill-rule="evenodd"/>
<path transform="matrix(1,0,0,-1,122.276,218.361)" d="M0 0C.35 .34 1.76-.5 3.15-1.89 4.54-3.29 5.39-4.7 5.04-5.05 4.69-5.39 3.28-4.55 1.89-3.15 .5-1.76-.35-.35 0 0Z" fill="#a9ce91" fill-rule="evenodd"/>
<path transform="matrix(1,0,0,-1,80.326,224.621)" d="M0 0C0-.41 1.34-.75 3-.75 4.65-.75 6-.41 6 0V-25.5C6-25.91 4.65-26.25 3-26.25 1.34-26.25 0-25.91 0-25.5Z" fill="#70ad47" fill-rule="evenodd"/>
<path transform="matrix(1,0,0,-1,80.326,224.621)" d="M0 0C0 .42 1.34 .75 3 .75 4.65 .75 6 .42 6 0 6-.41 4.65-.75 3-.75 1.34-.75 0-.41 0 0Z" fill="#a9ce91" fill-rule="evenodd"/>
</g>
</svg>
