<svg xmlns="http://www.w3.org/2000/svg" viewBox="0 0 41.033 22.317" width="41.033pt" height="22.317pt" data-symbol="memory-module-chip" data-kind="icon" data-size-pt="41.033x22.317">
  <title>memory-module-chip</title>
  <desc>rectangular chip/module with vertical internal stripes and end-cap pins, like a DIMM | source: nsdi25-062_fig7 (src/fig7_Architecture_1.svg) | candidate nsdi25-062_fig7_18 | units: pt at print size | colours as drawn, recolour by role</desc>
  <g data-symbol="memory-module-chip" transform="scale(0.84853) translate(-390.0030,217.6460)"><path transform="matrix(1,0,0,-1,-53.4006,1125.77)" d="M445.57 1319.28H489.596V1341.249H445.57Z" fill="#ffffff" fill-rule="evenodd"/>
<path transform="matrix(1,0,0,-1,-53.4006,1125.77)" stroke-width=".75" stroke-linecap="butt" stroke-miterlimit="2" stroke-linejoin="miter" fill="none" stroke="#000000" d="M445.57 1319.28H489.596V1341.249H445.57Z"/>
<path transform="matrix(1,0,0,-1,-53.4006,1125.77)" d="M450.96 1320.56H454.0722V1339.6161H450.96Z" fill="#8fa350" fill-rule="evenodd"/>
<path transform="matrix(1,0,0,-1,-53.4006,1125.77)" stroke-width=".75" stroke-linecap="butt" stroke-miterlimit="2" stroke-linejoin="miter" fill="none" stroke="#000000" d="M450.96 1320.56H454.0722V1339.6161H450.96Z"/>
<path transform="matrix(1,0,0,-1,-53.4006,1125.77)" d="M455.21 1320.56H458.3222V1339.6161H455.21Z" fill="#8fa350" fill-rule="evenodd"/>
<path transform="matrix(1,0,0,-1,-53.4006,1125.77)" stroke-width=".75" stroke-linecap="butt" stroke-miterlimit="2" stroke-linejoin="miter" fill="none" stroke="#000000" d="M455.21 1320.56H458.3222V1339.6161H455.21Z"/>
<path transform="matrix(1,0,0,-1,-53.4006,1125.77)" d="M446.84 1320.56H449.9522V1339.6161H446.84Z" fill="#8fa350" fill-rule="evenodd"/>
<path transform="matrix(1,0,0,-1,-53.4006,1125.77)" stroke-width=".75" stroke-linecap="butt" stroke-miterlimit="2" stroke-linejoin="miter" fill="none" stroke="#000000" d="M446.84 1320.56H449.9522V1339.6161H446.84Z"/>
<path transform="matrix(1,0,0,-1,-53.4006,1125.77)" d="M461.74 1319.62H481.79499V1340.856H461.74Z" fill="#ffffff" fill-rule="evenodd"/>
<path transform="matrix(1,0,0,-1,-53.4006,1125.77)" d="M459.74 1320.56H462.8522V1339.6161H459.74Z" fill="#8fa350" fill-rule="evenodd"/>
<path transform="matrix(1,0,0,-1,-53.4006,1125.77)" stroke-width=".75" stroke-linecap="butt" stroke-miterlimit="2" stroke-linejoin="miter" fill="none" stroke="#000000" d="M459.74 1320.56H462.8522V1339.6161H459.74Z"/>
<path transform="matrix(1,0,0,-1,-53.4006,1125.77)" d="M480.66 1320.92H483.77223V1339.9761H480.66Z" fill="#8fa350" fill-rule="evenodd"/>
<path transform="matrix(1,0,0,-1,-53.4006,1125.77)" stroke-width=".75" stroke-linecap="butt" stroke-miterlimit="2" stroke-linejoin="miter" fill="none" stroke="#000000" d="M480.66 1320.92H483.77223V1339.9761H480.66Z"/>
<path transform="matrix(1,0,0,-1,-53.4006,1125.77)" d="M485.19 1320.92H488.30223V1339.9761H485.19Z" fill="#8fa350" fill-rule="evenodd"/>
<path transform="matrix(1,0,0,-1,-53.4006,1125.77)" stroke-width=".75" stroke-linecap="butt" stroke-miterlimit="2" stroke-linejoin="miter" fill="none" stroke="#000000" d="M485.19 1320.92H488.30223V1339.9761H485.19Z"/>
</g>
</svg>
