<svg xmlns="http://www.w3.org/2000/svg" viewBox="0 0 376.99 374.309" width="376.99pt" height="374.309pt" data-symbol="dimmed-context-grid-highlight" data-kind="motif" data-size-pt="376.99x374.309">
  <title>dimmed-context-grid-highlight</title>
  <desc>a full light-grey reference grid with plain index labels, overlaid by a bold black-bordered, coloured tile exactly where it overlaps the grid, showing a local shard's place within the global logical domain (includes a small leader-line 'center' callout) | source: asplos25-067_fig1 (src/fig1_stencil-dist-example.svg) | candidate wave2:dimmed-context-grid-highlight | units: pt at print size | colours as drawn, recolour by role</desc>
  <g data-symbol="dimmed-context-grid-highlight" transform="scale(1.0017) translate(-149.3530,-197.1900)"><defs>
<clipPath id="asplos25-067-fig1-dimmed-context-grid-highlight-clip_1">
<path transform="matrix(1,0,0,-1,0,768)" d="M0 0H675V768H0Z"/>
</clipPath>
</defs>
<g clip-path="url(#asplos25-067-fig1-dimmed-context-grid-highlight-clip_1)">
<path transform="matrix(1,0,0,1,-17,-307)" stroke-width="2" stroke-linecap="round" stroke-linejoin="round" fill="none" stroke="#7e7f7f" d="M210.5371 619H282.5371V691H210.5371Z"/>
<text fill="#7e7f7f" xml:space="preserve" transform="matrix(1 0 0 1 -17 -307)" font-size="28" font-family="HelveticaNeue-Light, Helvetica, Arial, sans-serif"><tspan y="665.0939" x="220.3291 227.0771 242.64511 250.42911 265.9971">(1,0)</tspan></text>
<path transform="matrix(1,0,0,-1,0,768)" d="M265.5371 384H337.5371V456H265.5371Z" fill="#ffffd9"/>
<path transform="matrix(1,0,0,1,-17,-307)" stroke-width="2" stroke-linecap="round" stroke-linejoin="round" fill="none" stroke="#000000" d="M282.5371 619H354.5371V691H282.5371Z"/>
<text xml:space="preserve" transform="matrix(1 0 0 1 -17 -307)" font-size="28" font-family="HelveticaNeue-Light, Helvetica, Arial, sans-serif"><tspan y="665.0939" x="292.3291 299.0771 314.64509 322.42909 337.99708">(1,1)</tspan></text>
<path transform="matrix(1,0,0,1,-17,-307)" stroke-width="2" stroke-linecap="round" stroke-linejoin="round" fill="none" stroke="#7e7f7f" d="M426.463 619H498.463V691H426.463Z"/>
<text fill="#7e7f7f" xml:space="preserve" transform="matrix(1 0 0 1 -17 -307)" font-size="28" font-family="HelveticaNeue-Light, Helvetica, Arial, sans-serif"><tspan y="665.0939" x="436.255 443.003 458.57099 466.35499 481.92298">(1,3)</tspan></text>
<path transform="matrix(1,0,0,-1,0,768)" d="M337.463 384H409.463V456H337.463Z" fill="#7fcdb4"/>
<path transform="matrix(1,0,0,1,-17,-307)" stroke-width="2" stroke-linecap="round" stroke-linejoin="round" fill="none" stroke="#000000" d="M354.463 619H426.463V691H354.463Z"/>
<text xml:space="preserve" transform="matrix(1 0 0 1 -17 -307)" font-size="28" font-family="HelveticaNeue-Light, Helvetica, Arial, sans-serif"><tspan y="665.0939" x="364.255 371.003 386.57099 394.35499 409.92298">(1,2)</tspan></text>
<path transform="matrix(1,0,0,1,-17,-307)" stroke-width="2" stroke-linecap="round" stroke-linejoin="round" fill="none" stroke="#7e7f7f" d="M210.5371 547H282.5371V619H210.5371Z"/>
<text fill="#7e7f7f" xml:space="preserve" transform="matrix(1 0 0 1 -17 -307)" font-size="28" font-family="HelveticaNeue-Light, Helvetica, Arial, sans-serif"><tspan y="593.0939" x="220.3291 227.0771 242.64511 250.42911 265.9971">(0,0)</tspan></text>
<path transform="matrix(1,0,0,1,-17,-307)" stroke-width="2" stroke-linecap="round" stroke-linejoin="round" fill="none" stroke="#7e7f7f" d="M282.5371 547H354.5371V619H282.5371Z"/>
<text fill="#7e7f7f" xml:space="preserve" transform="matrix(1 0 0 1 -17 -307)" font-size="28" font-family="HelveticaNeue-Light, Helvetica, Arial, sans-serif"><tspan y="593.0939" x="292.3291 299.0771 314.64509 322.42909 337.99708">(0,1)</tspan></text>
<path transform="matrix(1,0,0,1,-17,-307)" stroke-width="2" stroke-linecap="round" stroke-linejoin="round" fill="none" stroke="#7e7f7f" d="M426.463 547H498.463V619H426.463Z"/>
<text fill="#7e7f7f" xml:space="preserve" transform="matrix(1 0 0 1 -17 -307)" font-size="28" font-family="HelveticaNeue-Light, Helvetica, Arial, sans-serif"><tspan y="593.0939" x="436.255 443.003 458.57099 466.35499 481.92298">(0,3)</tspan></text>
<path transform="matrix(1,0,0,1,-17,-307)" stroke-width="2" stroke-linecap="round" stroke-linejoin="round" fill="none" stroke="#7e7f7f" d="M354.463 547H426.463V619H354.463Z"/>
<text fill="#7e7f7f" xml:space="preserve" transform="matrix(1 0 0 1 -17 -307)" font-size="28" font-family="HelveticaNeue-Light, Helvetica, Arial, sans-serif"><tspan y="593.0939" x="364.255 371.003 386.57099 394.35499 409.92298">(0,2)</tspan></text>
<path transform="matrix(1,0,0,1,-17,-307)" stroke-width="2" stroke-linecap="round" stroke-linejoin="round" fill="none" stroke="#7e7f7f" d="M210.5371 763H282.5371V835H210.5371Z"/>
<text fill="#7e7f7f" xml:space="preserve" transform="matrix(1 0 0 1 -17 -307)" font-size="28" font-family="HelveticaNeue-Light, Helvetica, Arial, sans-serif"><tspan y="809.0939" x="220.3291 227.0771 242.64511 250.42911 265.9971">(3,0)</tspan></text>
<path transform="matrix(1,0,0,1,-17,-307)" stroke-width="2" stroke-linecap="round" stroke-linejoin="round" fill="none" stroke="#7e7f7f" d="M282.5371 763H354.5371V835H282.5371Z"/>
<text fill="#7e7f7f" xml:space="preserve" transform="matrix(1 0 0 1 -17 -307)" font-size="28" font-family="HelveticaNeue-Light, Helvetica, Arial, sans-serif"><tspan y="809.0939" x="292.3291 299.0771 314.64509 322.42909 337.99708">(3,1)</tspan></text>
<path transform="matrix(1,0,0,1,-17,-307)" stroke-width="2" stroke-linecap="round" stroke-linejoin="round" fill="none" stroke="#7e7f7f" d="M426.463 763H498.463V835H426.463Z"/>
<text fill="#7e7f7f" xml:space="preserve" transform="matrix(1 0 0 1 -17 -307)" font-size="28" font-family="HelveticaNeue-Light, Helvetica, Arial, sans-serif"><tspan y="809.0939" x="436.255 443.003 458.57099 466.35499 481.92298">(3,3)</tspan></text>
<path transform="matrix(1,0,0,1,-17,-307)" stroke-width="2" stroke-linecap="round" stroke-linejoin="round" fill="none" stroke="#7e7f7f" d="M354.463 763H426.463V835H354.463Z"/>
<text fill="#7e7f7f" xml:space="preserve" transform="matrix(1 0 0 1 -17 -307)" font-size="28" font-family="HelveticaNeue-Light, Helvetica, Arial, sans-serif"><tspan y="809.0939" x="364.255 371.003 386.57099 394.35499 409.92298">(3,2)</tspan></text>
<path transform="matrix(1,0,0,1,-17,-307)" stroke-width="2" stroke-linecap="round" stroke-linejoin="round" fill="none" stroke="#7e7f7f" d="M210.5371 691H282.5371V763H210.5371Z"/>
<text fill="#7e7f7f" xml:space="preserve" transform="matrix(1 0 0 1 -17 -307)" font-size="28" font-family="HelveticaNeue-Light, Helvetica, Arial, sans-serif"><tspan y="737.0939" x="220.3291 227.0771 242.64511 250.42911 265.9971">(2,0)</tspan></text>
<path transform="matrix(1,0,0,-1,0,768)" d="M265.5371 312H337.5371V384H265.5371Z" fill="#1d91c4"/>
<path transform="matrix(1,0,0,1,-17,-307)" stroke-width="2" stroke-linecap="round" stroke-linejoin="round" fill="none" stroke="#000000" d="M282.5371 691H354.5371V763H282.5371Z"/>
<text xml:space="preserve" transform="matrix(1 0 0 1 -17 -307)" font-size="28" font-family="HelveticaNeue-Light, Helvetica, Arial, sans-serif"><tspan y="737.0939" x="292.3291 299.0771 314.64509 322.42909 337.99708">(2,1)</tspan></text>
<path transform="matrix(1,0,0,1,-17,-307)" stroke-width="2" stroke-linecap="round" stroke-linejoin="round" fill="none" stroke="#7e7f7f" d="M426.463 691H498.463V763H426.463Z"/>
<text fill="#7e7f7f" xml:space="preserve" transform="matrix(1 0 0 1 -17 -307)" font-size="28" font-family="HelveticaNeue-Light, Helvetica, Arial, sans-serif"><tspan y="737.0939" x="436.255 443.003 458.57099 466.35499 481.92298">(2,3)</tspan></text>
<path transform="matrix(1,0,0,-1,0,768)" d="M337.463 312H409.463V384H337.463Z" fill="#2534c0"/>
<path transform="matrix(1,0,0,1,-17,-307)" stroke-width="2" stroke-linecap="round" stroke-linejoin="round" fill="none" stroke="#000000" d="M354.463 691H426.463V763H354.463Z"/>
<text xml:space="preserve" transform="matrix(1 0 0 1 -17 -307)" font-size="28" font-family="HelveticaNeue-Light, Helvetica, Arial, sans-serif"><tspan y="737.0939" x="364.255 371.003 386.57099 394.35499 409.92298">(2,2)</tspan></text>
<path transform="matrix(1,0,0,1,-17,-307)" stroke-width="5" stroke-linecap="round" stroke-linejoin="round" fill="none" stroke="#000000" d="M282.5 691H426.5V835H282.5Z"/>
<path transform="matrix(1,0,0,1,-17,-307)" stroke-width="5" stroke-linecap="round" stroke-linejoin="round" fill="none" stroke="#000000" d="M354.463 619H498.463V763H354.463Z"/>
<path transform="matrix(1,0,0,1,-17,-307)" stroke-width="5" stroke-linecap="round" stroke-linejoin="round" fill="none" stroke="#000000" d="M210.463 619H354.463V763H210.463Z"/>
<path transform="matrix(1,0,0,1,-17,-307)" stroke-width="5" stroke-linecap="round" stroke-linejoin="round" fill="none" stroke="#000000" d="M282.5 547H426.5V691H282.5Z"/>
<path transform="matrix(1,0,0,1,-17,-307)" stroke-width="5" stroke-linecap="round" stroke-linejoin="round" fill="none" stroke="#000000" d="M282.5 619H426.5V763H282.5Z"/>
<path transform="matrix(1,0,0,1,-17,-307)" stroke-width="3" stroke-linecap="round" stroke-dasharray="12,12" stroke-linejoin="round" fill="none" stroke="#000000" d="M281.5371 637.7354C257.7803 630.4838 223.3218 625.8507 180.3292 636.1837"/>
<path transform="matrix(1,0,0,1,-17,-307)" stroke-width="3" stroke-linecap="round" stroke-dasharray="12,12" stroke-linejoin="round" fill="none" stroke="#000000" d="M294.3418 618C287.3476 596.4607 284.806 564.2425 298.4458 518.1291"/>
<path transform="matrix(1,0,0,1,-17,-307)" stroke-width="3" stroke-linecap="round" stroke-dasharray="12,12" stroke-linejoin="round" fill="none" stroke="#000000" d="M413.7156 618C420.9378 596.1637 423.949 563.7026 410.6306 518.1361"/>
<path transform="matrix(1,0,0,1,-17,-307)" stroke-width="3" stroke-linecap="round" stroke-dasharray="12,12" stroke-linejoin="round" fill="none" stroke="#000000" d="M427.463 638.0362C451.5324 630.6195 486.305 625.6521 528.6709 635.7764"/>
<path transform="matrix(1,0,0,1,-17,-307)" stroke-width="3" stroke-linecap="round" stroke-dasharray="12,12" stroke-linejoin="round" fill="none" stroke="#000000" d="M427.463 749.2278C451.638 756.0086 486.3137 757.9252 528.7628 746.5258"/>
<path transform="matrix(1,0,0,1,-17,-307)" stroke-width="3" stroke-linecap="round" stroke-dasharray="12,12" stroke-linejoin="round" fill="none" stroke="#000000" d="M295.1411 764C287.6146 786.0001 284.2778 818.6057 297.76 863.8981"/>
<path transform="matrix(1,0,0,1,-17,-307)" stroke-width="3" stroke-linecap="round" stroke-dasharray="12,12" stroke-linejoin="round" fill="none" stroke="#000000" d="M281.5371 744.7841C257.7997 752.23 223.3542 756.9665 180.2914 746.3092"/>
<path transform="matrix(1,0,0,1,-17,-307)" stroke-width="3" stroke-linecap="round" stroke-dasharray="12,12" stroke-linejoin="round" fill="none" stroke="#000000" d="M411.9846 764C420.4026 787.1179 425.3621 820.7381 412.6675 863.9234"/>
<path transform="matrix(1,0,0,1,-17,-307)" stroke-width="3" stroke-linecap="round" stroke-linejoin="round" fill="none" stroke="#666666" d="M429 642.1839C458.7137 622.714 491.4079 601.2912 515.074 585.784"/>
</g>
</g>
</svg>
