<svg xmlns="http://www.w3.org/2000/svg" viewBox="0 0 17.98 28.031" width="17.98pt" height="28.031pt" data-symbol="queue-cell-direction-arrow-icon" data-kind="motif" data-size-pt="17.98x28.031">
  <title>queue-cell-direction-arrow-icon</title>
  <desc>a queue-slot cell split into a hollow direction-arrow glyph on top and a grey-shaded label below naming the queued entry type | source: nsdi23-077_fig3 (nsdi23-077_fig3_p5_vector.svg) | candidate wave3:queue-cell-direction-arrow-icon | units: pt at print size | colours as drawn, recolour by role</desc>
  <g data-symbol="queue-cell-direction-arrow-icon" transform="scale(1) translate(-59.1820,-26.3330)"><defs>
<clipPath id="nsdi23-077-fig3-queue-cell-direction-arrow-icon-clip_1">
<path transform="matrix(1,0,0,-1,-51,723.00198)" d="M51 506.24723H297.11488V723.00198H51Z" clip-rule="evenodd"/>
</clipPath>
<clipPath id="nsdi23-077-fig3-queue-cell-direction-arrow-icon-clip_2">
<path transform="matrix(.5062,0,0,-.5062,9.674,202.94898)" d="M0 0H448V395H0Z"/>
</clipPath>
<clipPath id="nsdi23-077-fig3-queue-cell-direction-arrow-icon-clip_3">
<path transform="matrix(.5062,0,0,-.5062,9.674,202.94898)" d="M0 .09090811H447.9273V395H0Z"/>
</clipPath>
</defs>
<g clip-path="url(#nsdi23-077-fig3-queue-cell-direction-arrow-icon-clip_1)">
<g clip-path="url(#nsdi23-077-fig3-queue-cell-direction-arrow-icon-clip_2)">
<path transform="matrix(.5062,0,0,-.5062,9.674,202.94898)" d="M99.85456 346.8546H131.2727V295.5818H99.85456Z" fill="#ffffff"/>
<path transform="matrix(.00003985827,0,0,.00003985827,60.22038,27.37117)" stroke-width="12700" stroke-linecap="butt" stroke-miterlimit="8" stroke-linejoin="miter" fill="none" stroke="#000000" d="M0 0H399011V651164H0Z"/>
<path transform="matrix(.5062,0,0,-.5062,9.674,202.94898)" d="M99.85456 321.1091H131.2727V295.5818H99.85456Z" fill="#e7e6e6"/>
<path transform="matrix(.00003985827,0,0,.00003985827,60.22038,40.40355)" stroke-width="12700" stroke-linecap="butt" stroke-miterlimit="8" stroke-linejoin="miter" fill="none" stroke="#000000" d="M0 0H399011V324196H0Z"/>
<text xml:space="preserve" transform="matrix(.11044363 0 -0 .11044363 63.180356 245.31331)" font-size="46" font-family="Calibri, 'Segoe UI', sans-serif"><tspan y="-1810" x="0 24.637604 47.573205 67.05881">Recv</tspan></text>
<text xml:space="preserve" transform="matrix(.11044363 0 -0 .11044363 63.180356 251.3877)" font-size="46" font-family="Calibri, 'Segoe UI', sans-serif"><tspan y="-1810" x="0 40.677804 71.60361">WQE</tspan></text>
<path transform="matrix(.5062,0,0,-.5062,9.674,202.94898)" d="M109.6727 326.5636H112.0728V335.9454H116.8728V326.5636H119.2727L114.4727 321.7636Z" fill="#d0cece" fill-rule="evenodd"/>
<path transform="matrix(.00003985827,0,0,.00003985827,65.19032,32.893404)" stroke-width="12700" stroke-linecap="butt" stroke-miterlimit="8" stroke-linejoin="miter" fill="none" stroke="#000000" d="M0 119149.1H30480.1V0H91440.1V119149.1H121920L60960 180109Z"/>
</g>
</g>
</g>
</svg>
