<svg xmlns="http://www.w3.org/2000/svg" viewBox="0 0 54.976 15.483" width="54.976pt" height="15.483pt" data-symbol="rounded-bar-subcarrier-codeword-row" data-kind="motif" data-size-pt="54.976x15.483">
  <title>rounded-bar-subcarrier-codeword-row</title>
  <desc>row of 6 tall rounded-top coloured bars (each one OFDM subcarrier per the figure's own legend) arranged in two colour groups with an ellipsis gap between them, together forming a codeword | source: nsdi24-028_fig1 (nsdi24-028_fig1_p3_vector.svg) | candidate wave5:rounded-bar-subcarrier-codeword-row | units: pt at print size | colours as drawn, recolour by role</desc>
  <g data-symbol="rounded-bar-subcarrier-codeword-row" transform="scale(1) translate(-2.3930,-9.4610)"><defs>
<clipPath id="nsdi24-028-fig1-rounded-bar-subcarrier-codeword-row-clip_1">
<path transform="matrix(1,0,0,-1,-324.8267,720.24929)" d="M324.8267 606.21157H550.3222V720.24929H324.8267Z" clip-rule="evenodd"/>
</clipPath>
<clipPath id="nsdi24-028-fig1-rounded-bar-subcarrier-codeword-row-clip_2">
<path transform="matrix(.7,0,0,-.7,1.2683106,110.84827)" d="M0 0H316V158H0Z"/>
</clipPath>
<clipPath id="nsdi24-028-fig1-rounded-bar-subcarrier-codeword-row-clip_3">
<path transform="matrix(.07,0,0,-.07,1.2683106,110.84827)" d="M10 0H3153.93V1573.55H10Z"/>
</clipPath>
</defs>
<g clip-path="url(#nsdi24-028-fig1-rounded-bar-subcarrier-codeword-row-clip_1)">
<g clip-path="url(#nsdi24-028-fig1-rounded-bar-subcarrier-codeword-row-clip_2)">
<g clip-path="url(#nsdi24-028-fig1-rounded-bar-subcarrier-codeword-row-clip_3)">
<path transform="matrix(.07,0,0,-.07,1.2683106,110.84827)" d="M45.1367 1256.89H148.9377V1408.691H45.1367Z" fill="#2bade3"/>
<path transform="matrix(.07,0,0,-.07,1.2683106,110.84827)" stroke-width="7.5" stroke-linecap="round" stroke-linejoin="round" fill="none" stroke="#030404" d="M148.34 1408.69 148.938 1256.89H45.1367V1408.69"/>
<path transform="matrix(.07,0,0,-.07,1.2683106,110.84827)" d="M148.938 1256.89H252.73902V1408.691H148.938Z" fill="#91cddc"/>
<path transform="matrix(.07,0,0,-.07,1.2683106,110.84827)" stroke-width="7.5" stroke-linecap="round" stroke-linejoin="round" fill="none" stroke="#030404" d="M252.137 1408.69 252.738 1256.89H148.938V1408.69"/>
<path transform="matrix(.07,0,0,-.07,1.2683106,110.84827)" d="M252.738 1256.89H356.539V1408.691H252.738Z" fill="#2d869c"/>
<path transform="matrix(.07,0,0,-.07,1.2683106,110.84827)" stroke-width="7.5" stroke-linecap="round" stroke-linejoin="round" fill="none" stroke="#030404" d="M356.539 1408.69V1256.89H252.738V1408.69"/>
<path transform="matrix(.07,0,0,-.07,1.2683106,110.84827)" d="M460.34 1256.29H564.13699V1408.0911H460.34Z" fill="#7a56a4"/>
<path transform="matrix(.07,0,0,-.07,1.2683106,110.84827)" stroke-width="7.5" stroke-linecap="round" stroke-linejoin="round" fill="none" stroke="#030404" d="M564.137 1408.09V1256.29H460.34V1408.09"/>
<path transform="matrix(.07,0,0,-.07,1.2683106,110.84827)" d="M564.137 1256.29H668.539V1408.0911H564.137Z" fill="#cdc3da"/>
<path transform="matrix(.07,0,0,-.07,1.2683106,110.84827)" stroke-width="7.5" stroke-linecap="round" stroke-linejoin="round" fill="none" stroke="#030404" d="M667.938 1408.09 668.539 1256.29H564.137V1408.09"/>
<text fill="#231f20" xml:space="preserve" transform="matrix(.700007 0 -0 .69999298 1.2683106 110.84827)" font-size="11.99992" font-family="TimesNewRomanPS-BoldMT, 'Times New Roman', Times, serif" font-weight="bold"><tspan y="-131.93033" x="36.31334 39.31332 42.3133">...</tspan></text>
<path transform="matrix(.07,0,0,-.07,1.2683106,110.84827)" d="M668.539 1256.29H772.34V1407.493H668.539Z" fill="#7e649e"/>
<path transform="matrix(.07,0,0,-.07,1.2683106,110.84827)" stroke-width="7.5" stroke-linecap="round" stroke-linejoin="round" fill="none" stroke="#030404" d="M772.34 1407.49V1256.29H668.539V1407.49"/>
</g>
</g>
</g>
</g>
</svg>
